<svg class="red-svg" xmlns="http://www.w3.org/2000/svg" xmlns:xlink="http://www.w3.org/1999/xlink" width="1946.265" height="939.841" viewBox="0 0 1946.265 939.841">
  <defs>
    <linearGradient id="linear-gradient1" x1="0.5" x2="0.5" y2="1" gradientUnits="objectBoundingBox">
      <stop offset="0" stop-color="#cf3744"/>
      <stop offset="1" stop-color="#ae1e2a"/>
    </linearGradient>
  </defs>
  <path id="Union_35" data-name="Union 35" d="M5816-1455.159v-147.656l26.264-18.23V-2395h1920v90.7c-4.237,1.089-8.3,2.053-12.236,2.984-21.54,5.1-38.552,9.131-51.679,26.176-13.981,18.158-22.642,50.3-28.087,104.216a232.1,232.1,0,0,1-5.045,30.826,135.715,135.715,0,0,1-8.3,24.628c-6.524,14.246-15.263,25.118-26.718,33.24-10.772,7.635-24.115,12.925-40.789,16.171-14.889,2.9-32.539,4.247-55.549,4.247-24.152,0-51.33-1.469-82.8-3.166-10.155-.549-20.657-1.116-31.658-1.664-4.005-.2-8.057-.3-12.037-.3a236.483,236.483,0,0,0-27.943,1.656,234.4,234.4,0,0,0-26.281,4.677,245.386,245.386,0,0,0-47.508,16.693c-26.008,12.222-50.985,29.266-74.233,50.658a357.662,357.662,0,0,0-26.408,27.053c-6.715,7.642-13.128,15.583-19.06,23.6a256.414,256.414,0,0,0-15.437,23.022c-.054.08-5.376,7.862-17.608,19.533a258.321,258.321,0,0,1-23.845,20.016,329.165,329.165,0,0,1-35.5,22.948c-32.311,18.142-69.612,32.6-110.867,42.965a624.239,624.239,0,0,1-77.81,14.159c-14.585,1.742-29.737,3.078-45.034,3.968-15.992.931-32.587,1.4-49.325,1.4-18.647,0-38-.584-57.523-1.74-20.357-1.2-41.473-3.058-62.759-5.517-22.136-2.554-45.078-5.831-68.188-9.738-23.985-4.056-48.819-8.9-73.816-14.408a821.35,821.35,0,0,0-85.883-14.277,730.459,730.459,0,0,0-80.029-4.494c-22.547,0-45.111,1.122-67.068,3.335-21,2.116-42,5.285-62.418,9.421-19.467,3.943-38.917,8.87-57.811,14.64-13.837,4.227-27.656,8.991-41.228,14.214-19.379,9.22-45.255,26.428-59.433,56.294-24.6,51.819-51.764,125.67-170.842,156.972s-98.664,134.727-98.664,134.727Z" transform="translate(-5816 2395.001)" fill="url(#linear-gradient1)"/>
</svg>